<?xml version="1.0" standalone="no"?>
<!DOCTYPE svg PUBLIC "-//W3C//DTD SVG 20010904//EN"
 "http://www.w3.org/TR/2001/REC-SVG-20010904/DTD/svg10.dtd">
<svg version="1.0" xmlns="http://www.w3.org/2000/svg"
 width="472.000000pt" height="463.000000pt" viewBox="0 0 472.000000 463.000000"
 preserveAspectRatio="xMidYMid meet">
<metadata>
Created by potrace 1.16, written by Peter Selinger 2001-2019
</metadata>
<g transform="translate(0.000000,463.000000) scale(0.100000,-0.100000)"
fill="#000000" stroke="none">
<path d="M1957 4395 c-483 -69 -872 -248 -1180 -543 -352 -339 -550 -769 -588
-1280 -15 -205 -7 -353 30 -528 60 -286 123 -448 264 -677 37 -61 168 -237
211 -286 89 -99 260 -254 356 -324 105 -75 141 -99 185 -122 28 -15 57 -32 65
-39 20 -17 183 -95 285 -136 247 -100 539 -167 840 -191 192 -16 503 -6 680
21 509 78 957 273 1345 585 52 42 103 81 113 86 25 14 21 39 -5 39 -13 0 -52
-14 -88 -31 -135 -64 -457 -162 -652 -199 -296 -57 -594 -76 -847 -55 -186 15
-205 17 -411 56 -158 29 -384 100 -555 173 -135 58 -376 193 -383 216 -2 6 -8
10 -13 10 -34 0 -303 242 -379 339 -14 18 -33 40 -43 49 -10 10 -35 44 -55 77
-20 33 -42 66 -49 73 -24 25 -104 204 -139 310 -55 169 -69 263 -69 457 1 196
11 263 66 435 152 472 528 797 1049 906 101 21 340 24 440 5 76 -14 190 -47
240 -68 266 -114 402 -227 537 -448 17 -28 78 -154 91 -190 46 -121 62 -313
38 -435 -65 -323 -319 -554 -647 -589 -232 -25 -478 117 -588 340 -163 330 -8
675 355 786 42 13 89 17 167 17 123 -1 130 6 46 48 -95 49 -155 62 -274 62
-135 0 -194 -13 -310 -69 -149 -72 -275 -198 -354 -352 -91 -180 -91 -460 2
-678 89 -210 287 -412 503 -511 264 -122 601 -123 891 -2 92 38 221 119 320
200 85 70 213 223 267 320 117 210 169 468 146 728 -9 110 -49 307 -69 348 -5
10 -13 28 -18 42 -21 52 -126 261 -138 273 -7 7 -19 26 -28 42 -9 17 -29 46
-46 65 -17 19 -41 48 -53 64 -31 38 -157 164 -199 199 -237 194 -508 315 -834
372 -127 23 -396 28 -518 10z"/>
</g>
</svg>
